<svg width="33" height="29" viewBox="0 0 33 29" fill="none" xmlns="http://www.w3.org/2000/svg">
<rect x="0.673584" y="0.146484" width="31.8972" height="28.5039" rx="3.39332" fill="#3F52FF"/>
<path d="M25.9526 5.8729C25.4578 5.41051 24.7254 5.23948 24.0425 5.42046L8.11792 9.62727C7.39741 9.81005 6.88672 10.3322 6.74914 10.9945C6.6086 11.6696 7.0995 12.5274 7.74084 12.8858L12.7201 15.6656C13.2308 15.9515 13.89 15.88 14.3126 15.4927L20.0143 10.2797C20.3013 10.0073 20.7764 10.0073 21.0634 10.2797C21.3504 10.5412 21.3504 10.9674 21.0634 11.2389L15.3518 16.4519C14.9282 16.8392 14.849 17.44 15.1608 17.9079L18.2031 22.4775C18.5594 23.0196 19.1731 23.3281 19.8461 23.3281C19.9252 23.3281 20.0143 23.3281 20.0935 23.3182C20.8655 23.2286 21.4791 22.7481 21.7067 22.0694L26.4277 7.61933C26.6355 7.00401 26.4475 6.33439 25.9526 5.8729Z" fill="white"/>
<path opacity="0.4" d="M14.0997 20.8613C14.3887 21.1265 14.3887 21.5563 14.0997 21.8214L12.7478 23.0566C12.6033 23.1896 12.4133 23.2557 12.2232 23.2557C12.0332 23.2557 11.8432 23.1896 11.6987 23.0566C11.4087 22.7915 11.4087 22.3626 11.6987 22.0974L13.0497 20.8613C13.3396 20.5971 13.8098 20.5971 14.0997 20.8613ZM13.3241 17.4336C13.6131 17.6988 13.6131 18.1286 13.3241 18.3937L11.9721 19.6289C11.8276 19.7619 11.6376 19.828 11.4476 19.828C11.2576 19.828 11.0675 19.7619 10.923 19.6289C10.6331 19.3638 10.6331 18.9349 10.923 18.6697L12.274 17.4336C12.564 17.1694 13.0341 17.1694 13.3241 17.4336ZM9.60158 16.3547C9.89057 16.6198 9.89057 17.0496 9.60158 17.3147L8.24962 18.5499C8.10512 18.6829 7.9151 18.749 7.72507 18.749C7.53505 18.749 7.34502 18.6829 7.20052 18.5499C6.91054 18.2848 6.91054 17.8559 7.20052 17.5907L8.55149 16.3547C8.84147 16.0904 9.31159 16.0904 9.60158 16.3547Z" fill="white"/>
</svg>
