<svg width="21" height="20" viewBox="0 0 21 20" fill="none" xmlns="http://www.w3.org/2000/svg">
<path d="M9.88138 2.74399C10.0455 2.58776 10.268 2.5 10.5 2.5C10.732 2.5 10.9545 2.58776 11.1186 2.74399L16.3686 7.74399C16.3913 7.76558 16.4126 7.78839 16.4325 7.81232L16.4378 7.81899L16.4518 7.83732L16.4885 7.88649L16.4964 7.89899L16.5025 7.90732L16.5148 7.92982L16.5358 7.96649L16.5419 7.98066L16.5506 7.99732L16.5611 8.02399L16.5743 8.05232L16.5804 8.07316L16.5874 8.08982L16.5918 8.11149L16.6023 8.14232L16.6058 8.16566L16.611 8.18649L16.6136 8.20816L16.6189 8.23566L16.6206 8.26066L16.6233 8.28399V8.30566L16.625 8.33316L16.6233 8.36066V8.38232L16.6206 8.40399L16.6189 8.43066L16.6145 8.45482L16.611 8.47982L16.6058 8.49982L16.6023 8.52482L16.5918 8.55399L16.5874 8.57649L16.5804 8.59232L16.5743 8.61399L16.5611 8.64149L16.5506 8.66982L16.5419 8.68482L16.5358 8.69982L16.5148 8.73566L16.5025 8.75899L16.4964 8.76649L16.4885 8.77982L16.4518 8.82816L16.4413 8.84399L16.4378 8.84649L16.4325 8.85482C16.3923 8.90216 16.3468 8.94519 16.2969 8.98316L16.289 8.98816L16.2698 9.00149L16.219 9.03649L16.205 9.04399L16.1971 9.04982L16.1726 9.06149L16.135 9.08149L16.1193 9.08732L16.1035 9.09566L16.0738 9.10566L16.0449 9.11816L16.0239 9.12316L16.0055 9.13066L15.9819 9.13482L15.9504 9.14482L15.925 9.14816L15.904 9.15316L15.8795 9.15566L15.8524 9.16066L15.8244 9.16232L15.8016 9.16482H15.7789L15.75 9.16649H5.25001C4.47126 9.16649 4.08013 8.26899 4.63138 7.74399L9.88138 2.74399ZM15.75 10.8332L15.7789 10.8348H15.8016L15.8244 10.8373L15.8524 10.839L15.8795 10.844L15.904 10.8465L15.925 10.8515L15.9513 10.8548L15.9819 10.8648L16.0055 10.869L16.0221 10.8757L16.0449 10.8815L16.0738 10.894L16.1035 10.904L16.1193 10.9123L16.135 10.9182L16.1726 10.9382L16.1971 10.9498L16.205 10.9557L16.219 10.9632L16.2636 10.994L16.2864 11.0082L16.289 11.0115L16.2978 11.0165C16.3476 11.0546 16.3928 11.098 16.4325 11.1457L16.4378 11.1532L16.4509 11.1698L16.4885 11.2198L16.4964 11.2332L16.5025 11.2407L16.5148 11.264L16.5358 11.2998L16.5401 11.3107L16.5506 11.3298L16.5611 11.3582L16.5743 11.3857L16.5804 11.4073L16.5874 11.424L16.5918 11.4457L16.6023 11.4757L16.6058 11.4998L16.611 11.5198L16.6136 11.5432L16.6189 11.569L16.6206 11.5957L16.6233 11.6173V11.639L16.625 11.6665L16.6233 11.694V11.7157L16.6206 11.7373L16.6189 11.764L16.6136 11.7898L16.611 11.8132L16.6058 11.8332L16.6023 11.8582L16.5918 11.8873L16.5874 11.9098L16.5804 11.9257L16.5743 11.9473L16.5611 11.9748L16.5506 12.0032L16.5419 12.0182L16.5358 12.0332L16.5148 12.069L16.5025 12.0923L16.4964 12.0998L16.4885 12.1132L16.4518 12.1615L16.4413 12.1773L16.4378 12.1798L16.4325 12.1882L16.3686 12.2557L11.1186 17.2557C10.9545 17.4119 10.732 17.4996 10.5 17.4996C10.268 17.4996 10.0455 17.4119 9.88138 17.2557L4.63138 12.2557C4.08013 11.7307 4.47038 10.8332 5.25001 10.8332H15.75Z" fill="#0078FF"/>
</svg>
