<svg width="47" height="42" viewBox="0 0 47 42" fill="none" xmlns="http://www.w3.org/2000/svg">
<rect width="47" height="42" rx="5" fill="#3F52FF"/>
<path d="M37.2483 8.43781C36.5192 7.75648 35.44 7.50448 34.4337 7.77115L10.9692 13.9698C9.90749 14.2391 9.15499 15.0085 8.95228 15.9845C8.7452 16.9791 9.46853 18.2431 10.4135 18.7711L17.7504 22.8671C18.5029 23.2885 19.4742 23.1831 20.0969 22.6125L28.4983 14.9311C28.9212 14.5298 29.6212 14.5298 30.0442 14.9311C30.4671 15.3165 30.4671 15.9445 30.0442 16.3445L21.6281 24.0258C21.004 24.5965 20.8873 25.4818 21.3467 26.1711L25.8296 32.9045C26.3546 33.7031 27.2587 34.1578 28.2504 34.1578C28.3671 34.1578 28.4983 34.1578 28.615 34.1431C29.7525 34.0111 30.6567 33.3031 30.9921 32.3031L37.9483 11.0111C38.2546 10.1045 37.9775 9.11781 37.2483 8.43781Z" fill="white"/>
<path opacity="0.4" d="M19.7833 30.5231C20.2092 30.9138 20.2092 31.5471 19.7833 31.9378L17.7912 33.7578C17.5783 33.9538 17.2983 34.0511 17.0183 34.0511C16.7383 34.0511 16.4583 33.9538 16.2454 33.7578C15.8181 33.3671 15.8181 32.7351 16.2454 32.3444L18.236 30.5231C18.6633 30.1338 19.356 30.1338 19.7833 30.5231ZM18.6404 25.4724C19.0663 25.8631 19.0663 26.4964 18.6404 26.8871L16.6484 28.7071C16.4354 28.9031 16.1554 29.0004 15.8754 29.0004C15.5954 29.0004 15.3154 28.9031 15.1025 28.7071C14.6752 28.3164 14.6752 27.6844 15.1025 27.2938L17.0931 25.4724C17.5204 25.0831 18.2131 25.0831 18.6404 25.4724ZM13.1554 23.8826C13.5812 24.2732 13.5812 24.9066 13.1554 25.2972L11.1633 27.1172C10.9504 27.3132 10.6704 27.4106 10.3904 27.4106C10.1104 27.4106 9.83035 27.3132 9.61744 27.1172C9.19014 26.7266 9.19014 26.0946 9.61744 25.7039L11.6081 23.8826C12.0354 23.4932 12.7281 23.4932 13.1554 23.8826Z" fill="white"/>
</svg>
