<svg width="52" height="8" viewBox="0 0 52 8" fill="none" xmlns="http://www.w3.org/2000/svg">
<path d="M2.35313 7.70489L2.9651 4.85538L0.930298 2.93961L3.61062 2.68754L4.66035 0L5.71007 2.687L8.38991 2.93908L6.3556 4.85484L6.96757 7.70435L4.66035 6.19191L2.35313 7.70489Z" fill="#FFD233"/>
<path d="M13.2556 7.70489L13.8676 4.85538L11.8328 2.93961L14.5131 2.68754L15.5628 0L16.6125 2.687L19.2924 2.93908L17.2581 4.85484L17.87 7.70435L15.5628 6.19191L13.2556 7.70489Z" fill="#FFD233"/>
<path d="M24.1582 7.70489L24.7701 4.85538L22.7354 2.93961L25.4157 2.68754L26.4654 0L27.5151 2.687L30.195 2.93908L28.1607 4.85484L28.7726 7.70435L26.4654 6.19191L24.1582 7.70489Z" fill="#FFD233"/>
<path d="M35.0606 7.70489L35.6726 4.85538L33.6378 2.93961L36.3181 2.68754L37.3679 0L38.4176 2.687L41.0974 2.93908L39.0631 4.85484L39.6751 7.70435L37.3679 6.19191L35.0606 7.70489Z" fill="#FFD233"/>
<path d="M45.9631 7.70489L46.5751 4.85538L44.5403 2.93961L47.2206 2.68754L48.2703 0L49.3201 2.687L51.9999 2.93908L49.9656 4.85484L50.5776 7.70435L48.2703 6.19191L45.9631 7.70489Z" fill="#FFD233"/>
</svg>
