<svg width="178" height="27" viewBox="0 0 178 27" fill="none" xmlns="http://www.w3.org/2000/svg">
<path d="M4.95918 26.2903L7.09216 16.5673L0 10.0304L9.34211 9.17032L13.0009 0L16.6596 9.16849L26 10.0286L18.9096 16.5655L21.0425 26.2885L13.0009 21.1278L4.95918 26.2903Z" fill="#FFD233"/>
<path d="M42.9592 26.2903L45.0922 16.5673L38 10.0304L47.3421 9.17032L51.0009 0L54.6596 9.16849L64 10.0286L56.9096 16.5655L59.0425 26.2885L51.0009 21.1278L42.9592 26.2903Z" fill="#FFD233"/>
<path d="M80.9592 26.2903L83.0922 16.5673L76 10.0304L85.3421 9.17032L89.0009 0L92.6596 9.16849L102 10.0286L94.9096 16.5655L97.0425 26.2885L89.0009 21.1278L80.9592 26.2903Z" fill="#FFD233"/>
<path d="M118.959 26.2903L121.092 16.5673L114 10.0304L123.342 9.17032L127.001 0L130.66 9.16849L140 10.0286L132.91 16.5655L135.043 26.2885L127.001 21.1278L118.959 26.2903Z" fill="#FFD233"/>
<path d="M156.959 26.2903L159.092 16.5673L152 10.0304L161.342 9.17032L165.001 0L168.66 9.16849L178 10.0286L170.91 16.5655L173.043 26.2885L165.001 21.1278L156.959 26.2903Z" fill="#FFD233"/>
</svg>
