<svg width="1804" height="532" viewBox="0 0 1804 532" fill="none" xmlns="http://www.w3.org/2000/svg">
<line y1="0.5" x2="847" y2="0.5" stroke="#667384" stroke-opacity="0.5"/>
<line x1="957" y1="0.5" x2="1804" y2="0.5" stroke="#667384" stroke-opacity="0.5"/>
<line y1="37.5" x2="847" y2="37.5" stroke="#667384" stroke-opacity="0.5"/>
<line x1="957" y1="37.5" x2="1804" y2="37.5" stroke="#667384" stroke-opacity="0.5"/>
<line y1="75.5" x2="847" y2="75.5" stroke="#667384" stroke-opacity="0.5"/>
<line x1="957" y1="75.5" x2="1804" y2="75.5" stroke="#667384" stroke-opacity="0.5"/>
<line y1="113.5" x2="847" y2="113.5" stroke="#667384" stroke-opacity="0.5"/>
<line x1="957" y1="113.5" x2="1804" y2="113.5" stroke="#667384" stroke-opacity="0.5"/>
<line y1="151.5" x2="847" y2="151.5" stroke="#667384" stroke-opacity="0.5"/>
<line x1="957" y1="151.5" x2="1804" y2="151.5" stroke="#667384" stroke-opacity="0.5"/>
<line y1="189.5" x2="847" y2="189.5" stroke="#667384" stroke-opacity="0.5"/>
<line x1="957" y1="189.5" x2="1804" y2="189.5" stroke="#667384" stroke-opacity="0.5"/>
<line y1="227.5" x2="847" y2="227.5" stroke="#667384" stroke-opacity="0.5"/>
<line x1="957" y1="227.5" x2="1804" y2="227.5" stroke="#667384" stroke-opacity="0.5"/>
<line y1="265.5" x2="847" y2="265.5" stroke="#667384" stroke-opacity="0.5"/>
<line x1="957" y1="265.5" x2="1804" y2="265.5" stroke="#667384" stroke-opacity="0.5"/>
<line y1="303.5" x2="847" y2="303.5" stroke="#667384" stroke-opacity="0.5"/>
<line x1="957" y1="303.5" x2="1804" y2="303.5" stroke="#667384" stroke-opacity="0.5"/>
<line y1="341.5" x2="847" y2="341.5" stroke="#667384" stroke-opacity="0.5"/>
<line x1="957" y1="341.5" x2="1804" y2="341.5" stroke="#667384" stroke-opacity="0.5"/>
<line y1="379.5" x2="847" y2="379.5" stroke="#667384" stroke-opacity="0.5"/>
<line x1="957" y1="379.5" x2="1804" y2="379.5" stroke="#667384" stroke-opacity="0.5"/>
<line y1="417.5" x2="847" y2="417.5" stroke="#667384" stroke-opacity="0.5"/>
<line x1="957" y1="417.5" x2="1804" y2="417.5" stroke="#667384" stroke-opacity="0.5"/>
<line y1="455.5" x2="847" y2="455.5" stroke="#667384" stroke-opacity="0.5"/>
<line x1="957" y1="455.5" x2="1804" y2="455.5" stroke="#667384" stroke-opacity="0.5"/>
<line y1="493.5" x2="847" y2="493.5" stroke="#667384" stroke-opacity="0.5"/>
<line x1="957" y1="493.5" x2="1804" y2="493.5" stroke="#667384" stroke-opacity="0.5"/>
<line y1="531.5" x2="847" y2="531.5" stroke="#667384" stroke-opacity="0.5"/>
<line x1="957" y1="531.5" x2="1804" y2="531.5" stroke="#667384" stroke-opacity="0.5"/>
</svg>
