<svg width="14" height="14" viewBox="0 0 14 14" fill="none" xmlns="http://www.w3.org/2000/svg">
<g clip-path="url(#clip0_1_460)">
<path d="M7.8515 0.874581L6.89922 6.0002L10.349 6.01209L5.6532 12.9606L6.60549 7.32163L3.15589 7.30931L7.8515 0.874581ZM7.85214 0.00991472C7.82935 0.00991472 7.80658 0.0107659 7.78421 0.0124817C7.63524 0.0248169 7.53647 0.075833 7.41937 0.156464C7.35343 0.201501 7.29398 0.255783 7.24276 0.317727C7.22737 0.336319 7.21286 0.355652 7.19928 0.375661L2.46989 6.78791C2.28315 7.05012 2.25572 7.39623 2.3992 7.68546C2.54248 7.9747 2.8322 8.15801 3.14977 8.16039L5.5861 8.17854L4.82013 12.8018C4.74733 13.1991 4.95412 13.5951 5.31812 13.7546C5.4239 13.8012 5.53784 13.8252 5.65298 13.8251C5.91822 13.8251 6.13619 13.698 6.29974 13.4684L11.035 6.51986C11.2218 6.25763 11.249 5.91111 11.1057 5.62231C10.9624 5.33307 10.6727 5.14975 10.3552 5.14738L7.91882 5.14306L8.67656 1.07798C8.69262 1.01143 8.7007 0.943123 8.70063 0.874567C8.70063 0.406776 8.33704 0.0254519 7.88211 0.01032C7.87199 0.0098877 7.86206 0.0098877 7.85216 0.0098877L7.85214 0.00991472Z" fill="#0013F4"/>
</g>
<defs>
<clipPath id="clip0_1_460">
<rect width="13.5047" height="13.8349" fill="white"/>
</clipPath>
</defs>
</svg>
