<svg width="40" height="40" viewBox="0 0 40 40" fill="none" xmlns="http://www.w3.org/2000/svg">
<path d="M23.2556 2.52812L20.4351 17.3475L30.6532 17.3819L16.7444 37.4719L19.5651 21.1681L9.34756 21.1325L23.2556 2.52812ZM23.2576 0.0281543C23.1901 0.0281543 23.1226 0.0306152 23.0564 0.0355762C22.6151 0.0712402 22.3226 0.21874 21.9757 0.451865C21.7804 0.582076 21.6043 0.739019 21.4526 0.918115C21.407 0.971867 21.3641 1.02776 21.3238 1.08562L7.31569 19.625C6.76256 20.3831 6.68131 21.3838 7.10631 22.22C7.53069 23.0563 8.38881 23.5863 9.32944 23.5932L16.5457 23.6457L14.2769 37.0125C14.0613 38.1613 14.6738 39.3063 15.7519 39.7675C16.0653 39.9022 16.4027 39.9715 16.7438 39.9713C17.5294 39.9713 18.175 39.6038 18.6594 38.94L32.6851 18.85C33.2382 18.0918 33.3188 17.09 32.8944 16.255C32.4701 15.4187 31.6119 14.8887 30.6713 14.8818L23.4551 14.8693L25.6994 3.1162C25.747 2.92378 25.7709 2.72629 25.7707 2.52808C25.7707 1.17558 24.6938 0.0730762 23.3463 0.0293262C23.3163 0.0280762 23.2869 0.0280762 23.2576 0.0280762L23.2576 0.0281543Z" fill="#0013F4"/>
</svg>
