<svg width="13" height="14" viewBox="0 0 13 14" fill="none" xmlns="http://www.w3.org/2000/svg">
<path d="M12.3454 3.53199L9.61616 0.685768C9.38711 0.446921 9.0765 0.312744 8.75262 0.312744C8.42875 0.312744 8.11813 0.446921 7.88908 0.685768L0.357877 8.5409C0.244071 8.65889 0.153838 8.79925 0.092408 8.95387C0.0309776 9.10849 -0.000430045 9.27428 4.44711e-06 9.44165V12.2885C4.44711e-06 12.6264 0.128688 12.9505 0.357747 13.1894C0.586805 13.4283 0.897476 13.5626 1.22141 13.5626H11.4812C11.6756 13.5626 11.862 13.482 11.9994 13.3387C12.1369 13.1953 12.2141 13.0009 12.2141 12.7981C12.2141 12.5954 12.1369 12.401 11.9994 12.2576C11.862 12.1142 11.6756 12.0337 11.4812 12.0337H5.92384L12.3454 5.33413C12.4589 5.21581 12.5489 5.07534 12.6103 4.92073C12.6717 4.76612 12.7033 4.60041 12.7033 4.43306C12.7033 4.2657 12.6717 4.09999 12.6103 3.94538C12.5489 3.79077 12.4589 3.6503 12.3454 3.53199ZM6.59561 4.19831L7.26739 4.89904L2.93139 9.42191L2.25961 8.72118L6.59561 4.19831ZM1.4657 12.0337V10.0589L2.41351 11.047L3.35888 12.0337H1.4657ZM4.64136 11.2056L3.96958 10.5048L8.30559 5.98198L8.97736 6.6827L4.64136 11.2056ZM10.0156 5.59977L7.63381 3.11537L8.75384 1.94707L11.1356 4.43146L10.0156 5.59977Z" fill="#0013F4"/>
</svg>
