<svg width="38" height="34" viewBox="0 0 38 34" fill="none" xmlns="http://www.w3.org/2000/svg">
<path d="M36.4545 8.65979L28.557 1.63286C27.8942 1.04318 26.9954 0.711914 26.0582 0.711914C25.121 0.711914 24.2221 1.04318 23.5594 1.63286L1.76639 21.0261C1.43707 21.3174 1.17596 21.6639 0.998204 22.0457C0.820444 22.4274 0.72956 22.8367 0.730817 23.2499V30.2784C0.730817 31.1127 1.10319 31.9127 1.76601 32.5026C2.42884 33.0925 3.32782 33.4239 4.26519 33.4239H33.954C34.5164 33.4239 35.0558 33.2251 35.4535 32.8711C35.8512 32.5172 36.0746 32.0372 36.0746 31.5366C36.0746 31.0361 35.8512 30.5561 35.4535 30.2021C35.0558 29.8482 34.5164 29.6494 33.954 29.6494H17.8725L36.4545 13.109C36.7829 12.8169 37.0433 12.4701 37.2211 12.0884C37.3988 11.7067 37.4902 11.2976 37.4902 10.8844C37.4902 10.4712 37.3988 10.0621 37.2211 9.6804C37.0433 9.29869 36.7829 8.95188 36.4545 8.65979ZM19.8165 10.3049L21.7604 12.0349L9.21332 23.2012L7.26941 21.4712L19.8165 10.3049ZM4.97207 29.6494V24.7739L7.71474 27.2132L10.4504 29.6494H4.97207ZM14.1614 27.6048L12.2175 25.8748L24.7646 14.7085L26.7085 16.4385L14.1614 27.6048ZM29.7127 13.7648L22.8207 7.63123L26.0617 4.74685L32.9537 10.8805L29.7127 13.7648Z" fill="#0013F4"/>
</svg>
