<svg width="14" height="17" viewBox="0 0 14 17" fill="none" xmlns="http://www.w3.org/2000/svg">
<path d="M11.2928 0.871416L0.614914 8.08327C-0.268063 8.6815 -0.183358 10.2116 0.761222 10.6656L3.69507 12.0875V14.6247C3.69507 16.0196 5.21461 16.5938 5.91791 15.4845L7.04217 13.7078L9.91441 15.0967C10.0658 15.1689 10.225 15.2049 10.3841 15.2049C10.5946 15.2049 10.8025 15.1418 10.9899 15.0185C11.3184 14.8021 11.5443 14.4173 11.6034 13.9814L13.128 2.34144C13.2846 1.13596 12.1809 0.273184 11.2928 0.871416ZM4.92713 14.6247V12.6827L5.86657 13.1367L4.92713 14.6247ZM10.3841 13.762L6.4364 11.853L10.035 5.77151C10.3097 5.30555 9.7912 4.76443 9.42672 5.13419L3.99795 10.6746L1.23094 9.33384L11.9088 2.11898L10.3841 13.762Z" fill="#0013F4"/>
</svg>
